<svg xmlns="http://www.w3.org/2000/svg" xmlns:xlink="http://www.w3.org/1999/xlink" width="50" zoomAndPan="magnify" viewBox="0 0 37.5 37.499999" height="50" preserveAspectRatio="xMidYMid meet" version="1.0"><defs><clipPath id="631c7bb46c"><path d="M 0 0 L 37.007812 0 L 37.007812 37.007812 L 0 37.007812 Z M 0 0 " clip-rule="nonzero"/></clipPath></defs><g clip-path="url(#631c7bb46c)"><path d="M 31.816406 29.441406 C 30.417969 28.367188 28.886719 27.460938 27.253906 26.746094 C 28.214844 24.386719 28.777344 21.820312 28.851562 19.136719 L 35.730469 19.136719 C 35.589844 23.039062 34.144531 26.617188 31.816406 29.441406 Z M 20.628906 35.609375 C 23.207031 33.546875 25.308594 30.914062 26.742188 27.902344 C 28.257812 28.566406 29.675781 29.402344 30.976562 30.390625 C 28.296875 33.203125 24.675781 35.109375 20.628906 35.609375 Z M 6.03125 30.390625 C 7.328125 29.402344 8.75 28.566406 10.265625 27.902344 C 11.699219 30.914062 13.800781 33.546875 16.378906 35.609375 C 12.328125 35.109375 8.710938 33.203125 6.03125 30.390625 Z M 1.277344 19.136719 L 8.152344 19.136719 C 8.230469 21.820312 8.789062 24.386719 9.753906 26.746094 C 8.117188 27.460938 6.585938 28.367188 5.1875 29.441406 C 2.863281 26.617188 1.417969 23.039062 1.277344 19.136719 Z M 5.1875 7.566406 C 6.585938 8.636719 8.117188 9.546875 9.753906 10.257812 C 8.789062 12.621094 8.230469 15.183594 8.152344 17.871094 L 1.277344 17.871094 C 1.417969 13.96875 2.863281 10.390625 5.1875 7.566406 Z M 16.378906 1.394531 C 13.800781 3.460938 11.699219 6.09375 10.265625 9.105469 C 8.75 8.441406 7.328125 7.605469 6.03125 6.613281 C 8.710938 3.804688 12.328125 1.894531 16.378906 1.394531 Z M 30.976562 6.613281 C 29.675781 7.605469 28.257812 8.441406 26.742188 9.105469 C 25.308594 6.09375 23.207031 3.460938 20.628906 1.394531 C 24.675781 1.894531 28.296875 3.804688 30.976562 6.613281 Z M 19.136719 17.871094 L 19.136719 12.074219 C 21.570312 12.003906 23.90625 11.539062 26.082031 10.734375 C 26.984375 12.949219 27.511719 15.355469 27.589844 17.871094 Z M 19.136719 24.933594 L 19.136719 19.136719 L 27.589844 19.136719 C 27.511719 21.652344 26.984375 24.058594 26.082031 26.273438 C 23.90625 25.46875 21.570312 25 19.136719 24.933594 Z M 19.136719 26.195312 C 21.386719 26.265625 23.550781 26.695312 25.566406 27.433594 C 24.085938 30.507812 21.863281 33.164062 19.136719 35.164062 Z M 17.871094 26.195312 L 17.871094 35.164062 C 15.140625 33.164062 12.921875 30.507812 11.4375 27.433594 C 13.457031 26.695312 15.621094 26.265625 17.871094 26.195312 Z M 17.871094 19.136719 L 17.871094 24.933594 C 15.4375 25 13.097656 25.46875 10.925781 26.273438 C 10.019531 24.058594 9.492188 21.652344 9.417969 19.136719 Z M 17.871094 12.074219 L 17.871094 17.871094 L 9.417969 17.871094 C 9.492188 15.355469 10.019531 12.949219 10.925781 10.734375 C 13.097656 11.539062 15.4375 12.003906 17.871094 12.074219 Z M 17.871094 10.808594 C 15.621094 10.742188 13.457031 10.3125 11.4375 9.574219 C 12.921875 6.496094 15.140625 3.84375 17.871094 1.84375 Z M 19.136719 1.84375 C 21.863281 3.84375 24.085938 6.496094 25.566406 9.574219 C 23.550781 10.3125 21.386719 10.742188 19.136719 10.808594 Z M 35.730469 17.871094 L 28.851562 17.871094 C 28.777344 15.183594 28.214844 12.621094 27.253906 10.257812 C 28.886719 9.546875 30.417969 8.636719 31.816406 7.566406 C 34.144531 10.390625 35.589844 13.96875 35.730469 17.871094 Z M 32.796875 6.765625 C 32.527344 6.441406 32.25 6.125 31.960938 5.816406 C 29.046875 2.726562 25.085938 0.636719 20.644531 0.125 C 20 0.046875 19.34375 0.0078125 18.679688 0.00390625 C 18.621094 0 18.5625 0 18.503906 0 C 18.445312 0 18.382812 0 18.328125 0.00390625 C 17.660156 0.0078125 17.003906 0.046875 16.359375 0.125 C 11.921875 0.636719 7.957031 2.726562 5.046875 5.816406 C 4.757812 6.125 4.480469 6.441406 4.210938 6.765625 C 1.578125 9.960938 0 14.050781 0 18.503906 C 0 22.953125 1.578125 27.046875 4.210938 30.242188 C 4.480469 30.566406 4.757812 30.882812 5.046875 31.1875 C 7.957031 34.277344 11.921875 36.371094 16.359375 36.878906 C 17.003906 36.957031 17.660156 37 18.328125 37.003906 C 18.382812 37.007812 18.445312 37.007812 18.503906 37.007812 C 18.5625 37.007812 18.621094 37.007812 18.679688 37.003906 C 19.34375 37 20 36.957031 20.644531 36.878906 C 25.085938 36.371094 29.046875 34.277344 31.960938 31.1875 C 32.25 30.882812 32.527344 30.566406 32.796875 30.242188 C 35.425781 27.046875 37.007812 22.953125 37.007812 18.503906 C 37.007812 14.050781 35.425781 9.960938 32.796875 6.765625 " fill-opacity="1" fill-rule="nonzero"/></g></svg>