<?xml version="1.0" encoding="iso-8859-1"?>
<!-- Uploaded to: SVG Repo, www.svgrepo.com, Generator: SVG Repo Mixer Tools -->
<svg height="800px" width="800px" version="1.1" id="Layer_1" xmlns="http://www.w3.org/2000/svg" xmlns:xlink="http://www.w3.org/1999/xlink" 
	 viewBox="0 0 512 512" xml:space="preserve">
<g>
	<g>
		<path style="fill:#CEC9AE;" d="M317.793,257.72v46.83h150.069c-23.623,0-46.221-21.769-56.302-52.921l0.15-0.044h-87.781
			C320.371,255.548,315.983,259.344,317.793,257.72"/>
		<path style="fill:#CEC9AE;" d="M211.862,257.72c1.81,1.624-2.578-2.172-6.135-6.135h-64.486H52.966
			c2.039,0,3.902-0.415,5.597-1.201c1.695-0.786,3.231-1.933,4.59-3.39c4.087-4.378,6.7-11.564,7.91-20.109
			c0.812-5.694,0.998-11.997,0.6-18.467c-0.203-3.24-0.547-6.524-1.042-9.799c-3.858-25.653-9.657-52.966-35.31-52.966
			C9.852,145.653,0,177.274,0,216.274c0,48.755,29.97,88.276,61.793,88.276h150.069V257.72z"/>
	</g>
	<path style="fill:#DD342E;" d="M344.276,198.621c0,43.882-35.566,79.448-79.448,79.448s-79.448-35.566-79.448-79.448
		s35.566-79.448,79.448-79.448S344.276,154.739,344.276,198.621"/>
	<path style="fill:#445793;" d="M264.828,278.069c-20.374,0-38.903-7.733-52.966-20.348v135.106l52.966-52.966l52.966,52.966
		V257.721C303.731,270.336,285.202,278.069,264.828,278.069"/>
	<g>
		<path style="fill:#EDEBDA;" d="M63.153,246.993c-1.359,1.457-2.895,2.604-4.59,3.39c-1.695,0.786-3.558,1.201-5.597,1.201h152.761
			c-12.615-14.062-20.348-32.583-20.348-52.966c0-20.374,7.733-38.903,20.348-52.966H35.311c25.653,0,31.444,27.313,35.31,52.966
			c0.494,3.275,0.839,6.559,1.042,9.799c0.397,6.479,0.212,12.774-0.6,18.467C69.854,235.429,67.241,242.615,63.153,246.993"/>
		<path style="fill:#EDEBDA;" d="M467.862,145.655H323.928c12.615,14.062,20.348,32.591,20.348,52.966s-7.733,38.903-20.348,52.966
			h169.057c9.807,0,18.061-7.539,18.714-17.32c0.194-3.001,0.3-6.065,0.3-9.163C512,181.222,492.235,145.655,467.862,145.655"/>
	</g>
	<path style="fill:#B12621;" d="M308.966,198.621c0,24.373-19.765,44.138-44.138,44.138c-24.373,0-44.138-19.765-44.138-44.138
		s19.765-44.138,44.138-44.138C289.201,154.483,308.966,174.248,308.966,198.621"/>
</g>
</svg>